<svg xmlns="http://www.w3.org/2000/svg" width="74" height="56" fill="none"><path stroke="#1C1F35" stroke-linecap="round" stroke-linejoin="round" stroke-width="2" d="M17.438 43.378h35.63M34.353 28.519l15.42-9.283M9.88 25.948l5.975 5.975M1.242 23.79l5.975 5.974M15.912 23.52l9.394 9.01a7.892 7.892 0 0 0 4.557 2.158 7.817 7.817 0 0 0 4.913-1.06l37.727-22.465-4.635-5.82a7.938 7.938 0 0 0-4.772-2.868 7.813 7.813 0 0 0-5.445 1.004l-11.064 6.663-14.951-5.106-4.112 1.813a2 2 0 0 0-.783.617 2.088 2.088 0 0 0-.313 1.936c.11.323.3.613.548.842l7.65 7.046-6.977 4.085-6.978-3.064-4.186 1.838a2 2 0 0 0-.777.61 2.09 2.09 0 0 0-.326 1.916c.105.322.287.612.53.844v0Z"/><path fill="#FFD550" stroke="#1C1F35" stroke-width="2" d="M68.724 6.668c-5.99 4.704-11.903 5.295-16.196 0l3.374-2.193a9.586 9.586 0 0 1 12.822 2.193Z"/></svg>