<svg xmlns="http://www.w3.org/2000/svg" width="49" height="51" fill="none"><path fill="#FFD550" stroke="#1C1F35" stroke-linecap="round" stroke-linejoin="round" stroke-width="2" d="M25.512 39.737a14.326 14.326 0 0 0 11.403 2.121 14.36 14.36 0 0 0 5.363-2.529 14.434 14.434 0 0 0 3.894-4.486 14.496 14.496 0 0 0 1.098-11.595 14.466 14.466 0 0 0-2.982-5.143 14.39 14.39 0 0 0-4.792-3.5 1.939 1.939 0 0 1-.9-.948 15.34 15.34 0 0 0-5.633-6.844A15.24 15.24 0 0 0 24.5 4.245a15.24 15.24 0 0 0-8.463 2.568 15.34 15.34 0 0 0-5.633 6.844c-.182.41-.5.746-.9.948a14.39 14.39 0 0 0-4.792 3.5 14.466 14.466 0 0 0-2.982 5.143 14.511 14.511 0 0 0 1.098 11.595c.974 1.75 2.3 3.278 3.894 4.486a14.36 14.36 0 0 0 5.363 2.53 14.326 14.326 0 0 0 11.403-2.122 1.838 1.838 0 0 1 2.024 0Z"/><path stroke="#1C1F35" stroke-linecap="round" stroke-linejoin="round" stroke-width="2" d="M42.553 29.887c-1.14 2.849-3.944 7.615-11.617 7.615M6.88 10.723C8.183 7.75 11.222 3.5 17.84 1.97M24.862 49.911V18.715M24.862 32.58l-10.625-5.2"/><path stroke="#fff" stroke-linecap="round" stroke-linejoin="round" d="m15.123 24.359 3.464 1.957"/><path stroke="#1C1F35" stroke-linecap="round" stroke-linejoin="round" d="M21.774 18.427v3.915"/><path stroke="#1C1F35" stroke-linecap="round" stroke-linejoin="round" stroke-width="1.5" d="M27.565 43.245v5"/><path stroke="#1C1F35" stroke-linecap="round" stroke-linejoin="round" stroke-width="2" d="m24.862 27.38 10.625-5.199"/></svg>