<svg xmlns="http://www.w3.org/2000/svg" width="56" height="58" fill="none"><path fill="#FFD550" stroke="#1C1F35" stroke-linecap="round" stroke-linejoin="round" stroke-width="2" d="M24.827 28.895c7.524 0 13.623-6.099 13.623-13.623 0-7.523-6.1-13.623-13.623-13.623-7.524 0-13.623 6.1-13.623 13.623 0 7.524 6.1 13.623 13.623 13.623Z"/><path stroke="#1C1F35" stroke-linecap="round" stroke-linejoin="round" stroke-width="2" d="M5.347 37.977a25.43 25.43 0 0 1 38.961 0"/><path fill="#fff" stroke="#141414" stroke-linecap="round" stroke-linejoin="round" d="M51.892 39.112H41.674V20.948h10.218v18.164Z"/><path fill="#FFD550" stroke="#000" stroke-linecap="round" stroke-linejoin="round" d="M51.892 27.76H41.674v-6.812h10.218v6.812Z"/><path stroke="#141414" stroke-linecap="round" stroke-linejoin="round" d="M48.486 25.49h-3.405M48.486 31.165h-3.405"/><path stroke="#1C1F35" stroke-linecap="round" stroke-linejoin="round" d="M55.298 28.895v9.658"/><path stroke="#1C1F35" stroke-linecap="round" stroke-linejoin="round" stroke-width="1.5" d="M6.72 22.63c-.876-1.155-3.035-4.995-1.365-12.21"/><path stroke="#1C1F35" stroke-linecap="round" stroke-linejoin="round" d="M35.245 16.685c-.049 1.16-.69 4.644-5.537 8.328"/></svg>