<svg xmlns="http://www.w3.org/2000/svg" width="58" height="58" fill="none"><circle cx="29" cy="29" r="29" fill="url(#a)"/><path stroke="#141414" stroke-linecap="round" stroke-linejoin="round" stroke-width="1.5" d="M41 37.46V24.54a1.1 1.1 0 0 0-.139-.53 1.037 1.037 0 0 0-.373-.387l-11-6.486a.94.94 0 0 0-.976 0l-11 6.486a1.037 1.037 0 0 0-.373.386 1.1 1.1 0 0 0-.139.531v12.92a1.1 1.1 0 0 0 .139.53c.09.162.219.295.373.387l11 6.486a.94.94 0 0 0 .976 0l11-6.486c.154-.092.283-.225.373-.387a1.1 1.1 0 0 0 .139-.53v0Z"/><path stroke="#141414" stroke-linecap="round" stroke-linejoin="round" stroke-width="1.5" d="M35 34v-6.9L23 20"/><path stroke="#141414" stroke-linecap="round" stroke-linejoin="round" stroke-width="1.5" d="m41 24-11.886 7L17 24M29 31v14"/><defs><linearGradient id="a" x1="-1.644" x2="71.32" y1="12.567" y2="17.748" gradientUnits="userSpaceOnUse"><stop stop-color="#FFB629"/><stop offset=".507" stop-color="#FFDA56"/><stop offset="1" stop-color="#FFD7A6"/></linearGradient></defs></svg>