<svg xmlns="http://www.w3.org/2000/svg" width="87" height="39" fill="none"><path fill="#fff" d="M12.648 0h3.906v38.565h-4.65L3.906 8.68v29.885H0V0h4.96l7.688 28.83V0ZM24.24 0h6.323c3.265 0 4.898 1.633 4.898 4.898v28.768c0 3.266-1.633 4.899-4.898 4.899H24.24c-3.265 0-4.898-1.633-4.898-4.898V4.898C19.341 1.633 20.974 0 24.24 0Zm7.005 32.984V5.58c0-.826-.124-1.343-.372-1.55-.248-.248-.765-.372-1.55-.372H25.48c-.785 0-1.302.124-1.55.372-.248.207-.372.724-.372 1.55v27.404c0 .827.124 1.364.372 1.612.248.207.765.31 1.55.31h3.844c.785 0 1.302-.103 1.55-.31.248-.247.372-.785.372-1.611ZM42.489 22.445v16.12h-4.216V0h11.222c3.265 0 4.898 1.633 4.898 4.898v12.649c0 2.934-1.281 4.546-3.844 4.835l5.828 16.183h-4.588l-5.642-16.12h-3.658Zm0-18.787v15.129h5.766c.827 0 1.343-.104 1.55-.31.248-.248.372-.786.372-1.613V5.58c0-.826-.124-1.343-.372-1.55-.207-.248-.723-.372-1.55-.372h-5.766Z"/><path fill="#fff" d="M70.653 0v3.658h-6.2v34.907h-4.216V3.658h-6.2V0h16.616Z"/><path fill="#fff" d="M75.26 0h6.325c3.265 0 4.898 1.633 4.898 4.898v28.768c0 3.266-1.633 4.899-4.898 4.899H75.26c-3.266 0-4.898-1.633-4.898-4.898V4.898C70.363 1.633 71.995 0 75.26 0Zm7.007 32.984V5.58c0-.826-.124-1.343-.372-1.55-.248-.248-.765-.372-1.55-.372H76.5c-.786 0-1.302.124-1.55.372-.248.207-.372.724-.372 1.55v27.404c0 .827.124 1.364.372 1.612.248.207.764.31 1.55.31h3.844c.785 0 1.302-.103 1.55-.31.248-.247.372-.785.372-1.611Z"/></svg>