<svg xmlns="http://www.w3.org/2000/svg" width="58" height="58" fill="none"><circle cx="29" cy="29" r="29" fill="url(#a)"/><path stroke="#1C1F35" stroke-linecap="round" stroke-linejoin="round" stroke-width="1.5" d="M42.964 21H16.036c-.572 0-1.036.448-1.036 1v14c0 .552.464 1 1.036 1h26.928c.572 0 1.036-.448 1.036-1V22c0-.552-.464-1-1.036-1Z"/><path stroke="#1C1F35" stroke-linecap="round" stroke-linejoin="round" stroke-width="1.5" d="M29.5 33a3.5 3.5 0 1 0 0-7 3.5 3.5 0 0 0 0 7ZM36 21l8 7M36 37l8-7M23 21l-8 7M23 37l-8-7"/><defs><linearGradient id="a" x1="-1.644" x2="71.32" y1="12.567" y2="17.748" gradientUnits="userSpaceOnUse"><stop stop-color="#FFB629"/><stop offset=".507" stop-color="#FFDA56"/><stop offset="1" stop-color="#FFD7A6"/></linearGradient></defs></svg>