<svg xmlns="http://www.w3.org/2000/svg" width="52" height="58" fill="none"><path stroke="#1C1F35" stroke-linecap="round" stroke-linejoin="round" stroke-width="2" d="M25.664 7.814V1.65M50.323 36.584c-3.75 13.1-21.114 17.673-24.197 18.392a1.875 1.875 0 0 1-.925 0c-3.082-.719-20.447-5.291-24.197-18.392V27.8a2.055 2.055 0 0 1 1.413-1.952l22.605-7.552a2.184 2.184 0 0 1 1.284 0l22.605 7.552a2.054 2.054 0 0 1 1.412 1.952v8.785Z"/><path stroke="#1C1F35" stroke-linecap="round" stroke-linejoin="round" stroke-width="2" d="M26.131 48.315c-2.439-.562-16.177-4.131-19.145-14.359"/><path fill="#FFD550" stroke="#1C1F35" stroke-width="2" d="M6.986 10.632v13.153l18.547-6.58 18.546 6.58V10.632a3 3 0 0 0-3-3H9.986a3 3 0 0 0-3 3Z"/><path stroke="#1C1F35" stroke-linecap="round" stroke-linejoin="round" stroke-width="2" d="M25.664 38.64V18.191M30.918 37.546V29.17M11.773 18.4v-5.982M48.865 20.794V10.025"/></svg>