<svg xmlns="http://www.w3.org/2000/svg" width="186" height="48" fill="none"><path fill="#fff" d="M62.362 12.337v3.857c0 .834.091 1.351.274 1.553.247.287.621.43 1.123.43h.508v.361h-5.674v-.361h.498c.56 0 .96-.183 1.201-.547.13-.202.195-.68.195-1.436V7.64c0-.834-.088-1.351-.263-1.553-.254-.287-.632-.43-1.133-.43h-.498v-.361h4.853c1.185 0 2.12.124 2.803.371.684.24 1.26.651 1.729 1.23.468.58.703 1.267.703 2.061 0 1.08-.358 1.96-1.075 2.637-.71.677-1.715 1.015-3.017 1.015-.32 0-.664-.022-1.035-.068a13.484 13.484 0 0 1-1.192-.205Zm0-.557c.345.065.651.114.918.147.267.032.495.049.684.049.677 0 1.26-.26 1.748-.782.495-.527.742-1.207.742-2.04a3.63 3.63 0 0 0-.351-1.592c-.235-.495-.567-.863-.997-1.104a2.882 2.882 0 0 0-1.464-.371c-.332 0-.759.062-1.28.185v5.508Zm25.646-6.787c1.719 0 3.206.654 4.463 1.963 1.263 1.302 1.894 2.93 1.894 4.883 0 2.012-.634 3.681-1.904 5.01-1.27 1.328-2.806 1.992-4.61 1.992-1.822 0-3.355-.648-4.599-1.944-1.237-1.295-1.855-2.971-1.855-5.029 0-2.103.716-3.818 2.148-5.146 1.244-1.153 2.731-1.729 4.463-1.729Zm-.185.713c-1.185 0-2.136.44-2.852 1.318-.892 1.094-1.338 2.696-1.338 4.805 0 2.162.462 3.825 1.387 4.99.71.886 1.647 1.329 2.812 1.329 1.244 0 2.27-.486 3.076-1.456.814-.97 1.221-2.5 1.221-4.59 0-2.265-.446-3.955-1.338-5.068-.716-.885-1.706-1.328-2.968-1.328Zm24.796 12.47v.362h-5.674v-.361h.468c.547 0 .944-.16 1.192-.479.156-.208.234-.71.234-1.504V7.64c0-.67-.042-1.114-.127-1.328-.065-.163-.198-.303-.4-.42a1.853 1.853 0 0 0-.899-.235h-.468v-.361h5.674v.361h-.479c-.54 0-.934.16-1.182.479-.162.208-.244.71-.244 1.504v8.554c0 .67.043 1.114.127 1.329.065.162.202.302.41.42a1.8 1.8 0 0 0 .889.234h.479Zm11.524-12.88h3.594l8.096 9.931V7.591c0-.814-.092-1.322-.274-1.524-.241-.273-.622-.41-1.142-.41h-.459v-.361h4.609v.361h-.469c-.56 0-.957.17-1.191.508-.143.208-.215.684-.215 1.426v11.162h-.352l-8.73-10.664v8.154c0 .814.088 1.322.264 1.524.247.273.628.41 1.142.41h.469v.361h-4.609v-.361h.459c.566 0 .966-.17 1.201-.508.143-.208.215-.684.215-1.426V7.034c-.385-.449-.677-.745-.879-.888-.196-.144-.485-.277-.869-.4-.189-.06-.476-.089-.86-.089v-.361Zm37.589 0 .147 3.105h-.371c-.072-.547-.17-.937-.293-1.172-.202-.377-.472-.654-.811-.83-.332-.182-.771-.273-1.318-.273h-1.865v10.117c0 .814.087 1.322.263 1.524.248.273.628.41 1.143.41h.459v.361h-5.615v-.361h.468c.56 0 .957-.17 1.192-.508.143-.208.215-.684.215-1.426V6.126h-1.592c-.619 0-1.058.046-1.319.137-.338.123-.628.361-.869.713-.241.351-.384.826-.429 1.425h-.372l.157-3.105h10.81Zm21.124-.303v4.58h-.361c-.117-.879-.329-1.579-.635-2.1a3.239 3.239 0 0 0-1.289-1.24 3.579 3.579 0 0 0-1.738-.459c-.677 0-1.237.209-1.68.625-.442.41-.664.88-.664 1.407 0 .403.14.771.42 1.103.404.488 1.364 1.14 2.881 1.953 1.237.664 2.08 1.175 2.529 1.534.456.351.804.768 1.045 1.25.248.481.371.986.371 1.513 0 1.003-.39 1.869-1.172 2.598-.774.723-1.774 1.084-2.998 1.084-.384 0-.745-.03-1.084-.088-.201-.033-.621-.15-1.259-.352-.632-.208-1.032-.312-1.201-.312a.529.529 0 0 0-.391.146c-.091.098-.16.3-.205.606h-.362V14.3h.362c.169.95.397 1.663.683 2.139.287.468.723.859 1.309 1.171.592.313 1.24.47 1.943.47.814 0 1.455-.216 1.924-.645.475-.43.713-.938.713-1.524a2.04 2.04 0 0 0-.273-.986c-.176-.332-.453-.642-.83-.928-.254-.195-.948-.609-2.081-1.24-1.132-.638-1.94-1.146-2.421-1.524-.476-.377-.837-.794-1.084-1.25a3.094 3.094 0 0 1-.371-1.504c0-.95.364-1.767 1.093-2.45.729-.69 1.657-1.036 2.783-1.036.704 0 1.449.173 2.237.518.364.162.622.244.771.244.17 0 .306-.049.41-.147.111-.104.199-.309.264-.615h.361Zm-117.28 23c1.718 0 3.206.655 4.462 1.963 1.263 1.302 1.895 2.93 1.895 4.883 0 2.012-.635 3.681-1.905 5.01-1.27 1.328-2.806 1.992-4.61 1.992-1.822 0-3.355-.648-4.599-1.944-1.237-1.295-1.855-2.971-1.855-5.029 0-2.103.716-3.818 2.148-5.146 1.244-1.153 2.731-1.729 4.463-1.729Zm-.186.713c-1.185 0-2.136.44-2.852 1.318-.892 1.094-1.338 2.696-1.338 4.805 0 2.162.462 3.825 1.387 4.99.71.886 1.647 1.328 2.812 1.328 1.244 0 2.27-.485 3.077-1.455.813-.97 1.22-2.5 1.22-4.59 0-2.265-.446-3.954-1.338-5.068-.716-.885-1.705-1.328-2.968-1.328Zm18.36-.41h3.594l8.096 9.931v-7.636c0-.814-.091-1.322-.274-1.524-.24-.273-.621-.41-1.142-.41h-.46v-.361h4.61v.361h-.469c-.56 0-.957.17-1.191.508-.143.208-.215.684-.215 1.426v11.162h-.352l-8.73-10.664v8.154c0 .814.088 1.322.264 1.524.247.273.628.41 1.142.41h.469v.361h-4.61v-.361h.46c.566 0 .966-.17 1.2-.508.144-.208.216-.684.216-1.426v-9.209c-.385-.449-.678-.745-.88-.889-.195-.143-.484-.276-.868-.4-.19-.059-.476-.088-.86-.088v-.361Zm30.197.723v5.234h2.91c.755 0 1.26-.114 1.514-.342.338-.3.527-.827.566-1.582h.361v4.61h-.361c-.091-.645-.182-1.059-.274-1.24a1.221 1.221 0 0 0-.576-.538c-.267-.13-.677-.195-1.23-.195h-2.91v4.365c0 .586.026.944.078 1.074a.642.642 0 0 0 .273.303c.13.072.378.107.742.107h2.247c.748 0 1.292-.052 1.63-.156.339-.104.664-.31.977-.615.404-.404.817-1.012 1.24-1.826h.391l-1.143 3.32h-10.205v-.361h.469c.312 0 .609-.075.889-.225a.8.8 0 0 0 .419-.469c.079-.208.118-.634.118-1.279v-8.603c0-.84-.085-1.358-.254-1.553-.235-.26-.625-.39-1.172-.39h-.469v-.362h10.205l.147 2.9h-.381c-.137-.696-.29-1.175-.459-1.435a1.532 1.532 0 0 0-.733-.596c-.26-.098-.719-.146-1.377-.146h-3.632Z"/><path stroke="#fff" d="M5.701 13.302 23.684.612l17.983 12.69 1.999 21.919-19.982 9.229-19.98-9.23L5.7 13.303Z"/><path stroke="#fff" d="m9.065 15.244 14.62-10.317 14.619 10.317 1.624 17.819-16.244 7.502L7.44 33.063l1.625-17.82Z"/><path stroke="#fff" d="m12.379 17.157 11.306-7.978 11.305 7.978 1.257 13.78-12.562 5.802-12.562-5.802 1.256-13.78Z"/><path stroke="#fff" d="m16.055 19.279 7.63-5.384 7.63 5.384.848 9.3-8.478 3.916-8.478-3.916.848-9.3Z"/><path fill="#fff" d="M126.865 28.432h57.534v2.171h-57.534zM126.865 33.498h57.534v2.171h-57.534zM126.865 38.685h57.534v2.171h-57.534z"/></svg>