<svg xmlns="http://www.w3.org/2000/svg" width="52" height="59" fill="none"><path stroke="#000" stroke-linecap="round" stroke-linejoin="round" stroke-width="2" d="M4.833 41.75V14.916M43.167 14.916V41.75M16.333 28.334v3.833M24 26.417v5.75M31.667 24.5v7.667M45.083 7.25H2.917A1.917 1.917 0 0 0 1 9.167V13c0 1.059.858 1.917 1.917 1.917h42.166A1.917 1.917 0 0 0 47 13V9.167a1.917 1.917 0 0 0-1.917-1.917Z"/><path fill="#FFD550" stroke="#000" stroke-linecap="round" stroke-linejoin="round" stroke-width="2" d="M45.083 7.25H2.917A1.917 1.917 0 0 0 1 9.167V13c0 1.059.858 1.917 1.917 1.917h42.166A1.917 1.917 0 0 0 47 13V9.167a1.917 1.917 0 0 0-1.917-1.917Z"/><path stroke="#1C1F35" stroke-linecap="round" stroke-linejoin="round" stroke-width="1.5" d="M17.4 57.295c-1.803-1.31-2.612-4.478-.587-7.09"/><path stroke="#1C1F35" stroke-linecap="round" stroke-linejoin="round" stroke-width="2" d="M1 1h21M51 18v10"/><path stroke="#000" stroke-linecap="round" stroke-linejoin="round" stroke-width="2" d="M24 41.75v7.667"/><path fill="#FFD550" stroke="#000" stroke-linecap="round" stroke-linejoin="round" stroke-width="2" d="M24 57.083a3.833 3.833 0 1 0 0-7.666 3.833 3.833 0 0 0 0 7.666Z"/><path stroke="#000" stroke-linecap="round" stroke-linejoin="round" stroke-width="2" d="M1 41.75h46"/></svg>