<svg xmlns="http://www.w3.org/2000/svg" width="50" height="54" fill="none"><path fill="#FFD550" stroke="#1C1F35" stroke-linecap="round" stroke-linejoin="round" stroke-width="2" d="M2.004 21.153V7.375c0-.498.197-.976.547-1.328.35-.352.826-.55 1.321-.55h37.372c.495 0 .97.198 1.321.55.35.352.547.83.547 1.328v13.778c0 19.717-16.653 26.243-19.97 27.346-.377.14-.791.14-1.168 0-3.317-1.103-19.97-7.629-19.97-27.346Z"/><path stroke="#1C1F35" stroke-linecap="round" stroke-linejoin="round" stroke-width="2" d="M18.314 51.24c-2.925-.922-10.103-4.406-17.092-13.495M32.834 18.642l-13.71 13.144-6.844-6.572"/><path stroke="#fff" stroke-linecap="round" stroke-linejoin="round" stroke-width="2" d="m27.49 29.555-4.933 4.958"/><path stroke="#1C1F35" stroke-linecap="round" stroke-linejoin="round" stroke-width="2" d="M48.223 5.458v13.22M21.556 1.5H1"/></svg>