<svg xmlns="http://www.w3.org/2000/svg" width="173" height="39" fill="none"><path fill="#fff" d="M.84 6.512c0-1.654.462-3.04 1.387-4.16.924-1.12 2.135-1.68 3.632-1.68 1.51 0 2.722.566 3.633 1.7.925 1.119 1.387 2.5 1.387 4.14 0 1.627-.462 3.008-1.387 4.14-.911 1.12-2.122 1.68-3.633 1.68-1.497 0-2.708-.56-3.632-1.68C1.302 9.532.84 8.152.84 6.512Zm1.055-.02c0 1.276.351 2.409 1.054 3.399.716.976 1.686 1.464 2.91 1.464 1.224 0 2.188-.481 2.891-1.445.716-.976 1.074-2.116 1.074-3.418 0-1.315-.358-2.448-1.074-3.398-.716-.964-1.68-1.446-2.89-1.446-1.25 0-2.227.495-2.93 1.485-.69.976-1.035 2.096-1.035 3.36Zm21.593-5.488h4.375v.918H25.87V7.43c0 1.185.124 2.03.371 2.539.443.924 1.316 1.386 2.618 1.386 1.354 0 2.24-.41 2.656-1.23.26-.469.39-1.302.39-2.5V1.922h-1.992v-.918h4.375v.918h-1.406v5.703c0 1.536-.234 2.63-.703 3.281-.26.365-.677.697-1.25.996-.573.287-1.257.43-2.05.43-1.498 0-2.605-.508-3.321-1.523-.443-.638-.664-1.765-.664-3.38V1.923h-1.406v-.918Zm23.721 0h9.375l.332 4.61-.937.116-.273-3.808h-3.32v9.16h2.362V12h-5.703v-.918h2.364v-9.16h-3.32l-.274 3.808-.938-.117.332-4.61Zm22.687 5.508c0-1.654.462-3.04 1.387-4.16.924-1.12 2.135-1.68 3.633-1.68 1.51 0 2.721.566 3.632 1.7.925 1.119 1.387 2.5 1.387 4.14 0 1.627-.462 3.008-1.387 4.14-.911 1.12-2.122 1.68-3.632 1.68-1.498 0-2.709-.56-3.633-1.68-.925-1.12-1.387-2.5-1.387-4.14Zm1.055-.02c0 1.276.351 2.409 1.055 3.399.716.976 1.686 1.464 2.91 1.464 1.224 0 2.187-.481 2.89-1.445.716-.976 1.075-2.116 1.075-3.418 0-1.315-.359-2.448-1.075-3.398-.716-.964-1.68-1.446-2.89-1.446-1.25 0-2.227.495-2.93 1.485-.69.976-1.035 2.096-1.035 3.36Zm22.53-5.488h9.16l.098 3.516h-.879l-.234-2.598H96.04V5.73h3.164V4.305h.898v3.75h-.898V6.648H96.04v4.434h2.539V12H93.48v-.918h1.582v-9.16h-1.582v-.918Zm22.785 0h9.375l.332 4.61-.938.116-.273-3.808h-3.321v9.16h2.364V12h-5.703v-.918h2.363v-9.16h-3.32l-.274 3.808-.937-.117.332-4.61Zm22.608 0h3.906v.918h-1.464v3.945h5.312V1.922h-1.465v-.918h3.926v.918h-1.484v9.16h1.484V12h-3.926v-.918h1.465V6.785h-5.312v4.297h1.464V12h-3.906v-.918h1.465v-9.16h-1.465v-.918Zm23.371 0h9.277l.078 3.594h-.898l-.196-2.676h-5.625V5.73h3.164V4.305h.899v3.75h-.899V6.648h-3.164v4.434h5.821l.097-2.676h.899V12h-9.453v-.918h1.66v-9.16h-1.66v-.918ZM9.023 26.789h.88a6.286 6.286 0 0 0-.176 1.406c0 .6.058 1.374.175 2.325l-.879.156c-.104-.768-.306-1.38-.605-1.836-.52-.794-1.348-1.192-2.48-1.192-.938 0-1.667.241-2.188.723-.508.482-.762 1.01-.762 1.582 0 .417.098.768.293 1.055.209.286.495.501.86.644.377.13.683.222.918.274.234.039.533.078.898.117.82.091 1.42.182 1.797.273.39.078.742.222 1.055.43.807.547 1.21 1.302 1.21 2.266 0 1.054-.403 1.875-1.21 2.46-.808.574-1.739.86-2.793.86-1.068 0-1.96-.3-2.676-.898-.052-.052-.104-.078-.156-.078-.066 0-.13.052-.196.156-.052.156-.11.449-.175.879h-.88c.118-.56.176-1.14.176-1.739 0-.286-.058-.976-.175-2.07h.879c.156.781.377 1.36.664 1.738.52.69 1.321 1.035 2.402 1.035 1.08 0 1.862-.227 2.344-.683.494-.456.742-.983.742-1.582 0-.326-.065-.606-.195-.84a1.585 1.585 0 0 0-.47-.566 1.98 1.98 0 0 0-.683-.352 4.083 4.083 0 0 0-.683-.176c-.183-.026-.41-.052-.684-.078-.443-.039-.8-.078-1.074-.117a8.197 8.197 0 0 1-1.094-.273c-.456-.144-.82-.313-1.094-.508-.273-.196-.52-.476-.742-.84-.208-.378-.312-.814-.312-1.309 0-.911.37-1.699 1.113-2.363.755-.664 1.68-.996 2.773-.996.938 0 1.745.267 2.422.8.248.183.397.274.45.274.078 0 .13-.032.156-.098.026-.065.071-.267.136-.605.026-.104.04-.189.04-.254Zm16.203.215h4.199l4.121 10.078h.996V38h-4.004v-.918h1.993l-1.114-2.715H26.32l-1.093 2.715h1.992V38h-4.004v-.918h1.035l3.77-9.16h-2.793v-.918Zm5.86 6.504-2.208-5.352-2.207 5.352h4.414Zm15.498-6.504h3.34l5.137 10.176h.352v-9.258h-2.188v-.918h4.355v.918h-1.27v10.332h-1.737l-5.235-10.332h-.332v9.16h2.207V38h-4.629v-.918h1.524v-9.16h-1.524v-.918Zm23.136 0h4.883c.977 0 1.764.091 2.363.273.6.183 1.146.58 1.641 1.192.807 1.002 1.211 2.278 1.211 3.828 0 2.018-.54 3.542-1.621 4.57-.794.755-2.018 1.133-3.672 1.133H69.72v-.918h1.543v-9.16H69.72v-.918Zm4.903.918H72.24v9.16h2.285c1.328 0 2.305-.306 2.93-.918.872-.872 1.308-2.142 1.308-3.809 0-1.263-.306-2.317-.918-3.164-.377-.533-.8-.878-1.27-1.035-.468-.156-1.119-.234-1.952-.234Zm42.072-.918h5.332c1.263 0 2.201.273 2.813.82.612.547.918 1.218.918 2.012 0 1.08-.515 1.888-1.543 2.422 1.484.442 2.226 1.354 2.226 2.734a2.84 2.84 0 0 1-.39 1.465c-.248.443-.58.775-.996.996a4.394 4.394 0 0 1-1.25.45c-.417.064-1.068.097-1.953.097h-5.157v-.918h1.621v-9.16h-1.621v-.918Zm5.293.918h-2.695v3.906h2.598c.599 0 1.106-.072 1.523-.215.417-.156.71-.351.879-.586.169-.234.286-.449.352-.644.065-.195.097-.39.097-.586 0-.43-.117-.788-.351-1.074a1.561 1.561 0 0 0-.899-.567 6.66 6.66 0 0 0-.879-.195 4.732 4.732 0 0 0-.625-.04Zm-.254 4.824h-2.441v4.336h3.281c.183-.013.436-.039.762-.078.338-.04.605-.098.801-.176.208-.091.423-.208.644-.351a1.39 1.39 0 0 0 .489-.606c.104-.247.156-.54.156-.879 0-.768-.332-1.334-.996-1.699-.664-.365-1.563-.547-2.696-.547Zm17.941-.234c0-1.654.462-3.04 1.387-4.16.924-1.12 2.135-1.68 3.633-1.68 1.51 0 2.721.566 3.632 1.7.925 1.119 1.387 2.5 1.387 4.14 0 1.627-.462 3.008-1.387 4.14-.911 1.12-2.122 1.68-3.632 1.68-1.498 0-2.709-.56-3.633-1.68-.925-1.12-1.387-2.5-1.387-4.14Zm1.055-.02c0 1.276.351 2.409 1.054 3.399.717.976 1.687 1.465 2.911 1.465 1.223 0 2.187-.482 2.89-1.446.716-.976 1.074-2.116 1.074-3.418 0-1.315-.358-2.448-1.074-3.398-.716-.964-1.68-1.446-2.89-1.446-1.25 0-2.227.495-2.93 1.485-.69.976-1.035 2.096-1.035 3.36Zm22.14-5.488h3.789v.918h-1.602l2.676 3.574 2.734-3.574h-1.484v-.918h3.574v.918h-.996l-3.281 4.297 3.633 4.863h1.015V38h-3.945v-.918h1.758l-3.008-4.14-3.145 4.14h2.071V38h-4.161v-.918h.997l3.691-4.863-3.281-4.297h-1.035v-.918Z"/></svg>