<svg xmlns="http://www.w3.org/2000/svg" width="63" height="63" fill="none"><circle cx="31.5" cy="31.5" r="31.5" fill="url(#a)"/><path stroke="#1C1F35" stroke-linecap="round" stroke-linejoin="round" stroke-width="2" d="M32 23v-3M42 34.487c-1.52 5.335-8.563 7.197-9.813 7.49a.756.756 0 0 1-.374 0c-1.25-.293-8.292-2.155-9.813-7.49V30.91a.84.84 0 0 1 .573-.795l9.167-3.076a.882.882 0 0 1 .52 0l9.167 3.076a.834.834 0 0 1 .573.795v3.577ZM32 35v-8"/><path stroke="#1C1F35" stroke-linecap="round" stroke-linejoin="round" stroke-width="2" d="M25 29v-5.25c0-.199.088-.39.244-.53a.882.882 0 0 1 .59-.22h13.333c.22 0 .433.079.589.22.156.14.244.331.244.53V29"/><defs><linearGradient id="a" x1="-1.786" x2="77.468" y1="13.65" y2="19.278" gradientUnits="userSpaceOnUse"><stop stop-color="#FFB629"/><stop offset=".507" stop-color="#FFDA56"/><stop offset="1" stop-color="#FFD7A6"/></linearGradient></defs></svg>