<svg xmlns="http://www.w3.org/2000/svg" width="56" height="58" fill="none"><path fill="#FFD550" stroke="#1C1F35" stroke-width="2" d="M39.075 16.042V6.078h5.597a7 7 0 0 1 6.47 4.33l2.041 4.943a.5.5 0 0 1-.462.691H39.075Z"/><path stroke="#1C1F35" stroke-linecap="round" stroke-linejoin="round" stroke-width="2" d="M1.433 22.686h37.642M42.397 40.399a6.643 6.643 0 1 0 0-13.286 6.643 6.643 0 0 0 0 13.286Z"/><path fill="#FFD550" stroke="#1C1F35" stroke-linecap="round" stroke-linejoin="round" stroke-width="2" d="M13.612 40.399a6.643 6.643 0 1 0 0-13.286 6.643 6.643 0 0 0 0 13.286Z"/><path stroke="#1C1F35" stroke-linecap="round" stroke-linejoin="round" stroke-width="2" d="M35.754 32.65h-15.5M6.913 32.65H3.315c-.5 0-.978-.205-1.331-.568a1.967 1.967 0 0 1-.551-1.37V3.587c0-.514.198-1.007.55-1.37a1.855 1.855 0 0 1 1.332-.568h35.76v25.963M39.075 16.042h15.5v14.762c0 .49-.204.959-.567 1.305-.364.346-.856.54-1.37.54H48.9M5.861 15.351V6.078M25.79 18.257h9.273M25.79 36.97h3.321"/></svg>