<svg xmlns="http://www.w3.org/2000/svg" width="206" height="52" fill="none"><path fill="#fff" d="M61.103 14.742h2.7c.053.453.26.866.62 1.24.373.36.86.646 1.46.86.6.2 1.273.3 2.02.3.68 0 1.24-.074 1.68-.22.44-.147.767-.354.98-.62a1.49 1.49 0 0 0 .32-.96c0-.36-.133-.634-.4-.82-.267-.2-.687-.36-1.26-.48a27.587 27.587 0 0 0-2.26-.4 15.912 15.912 0 0 1-2.08-.44 7.7 7.7 0 0 1-1.74-.76 3.805 3.805 0 0 1-1.18-1.12c-.28-.454-.42-.987-.42-1.6 0-.76.213-1.427.64-2 .44-.574 1.087-1.02 1.94-1.34.853-.32 1.9-.48 3.14-.48 1.866 0 3.3.4 4.3 1.2 1.013.786 1.507 1.873 1.48 3.26h-2.6c-.053-.787-.387-1.354-1-1.7-.6-.347-1.36-.52-2.28-.52-.853 0-1.56.126-2.12.38-.547.253-.82.686-.82 1.3 0 .24.067.453.2.64.133.173.36.326.68.46.32.133.753.26 1.3.38.546.12 1.226.24 2.04.36.76.106 1.447.253 2.06.44.626.173 1.16.406 1.6.7.453.28.8.64 1.04 1.08.24.44.36.98.36 1.62 0 .786-.207 1.473-.62 2.06-.4.573-1.027 1.02-1.88 1.34-.84.32-1.933.48-3.28.48-.96 0-1.807-.1-2.54-.3-.734-.214-1.367-.494-1.9-.84a5.498 5.498 0 0 1-1.3-1.14 4.264 4.264 0 0 1-.72-1.24c-.133-.414-.187-.787-.16-1.12Zm24.907-8.58h13.64v2.22H86.01v-2.22Zm5.5 1.94h2.66v11h-2.66v-11Zm33.253 5.28v-7.22h2.66v7.5c0 .853-.127 1.6-.38 2.24-.24.64-.587 1.18-1.04 1.62-.453.44-.987.8-1.6 1.08-.6.266-1.26.46-1.98.58-.707.12-1.453.18-2.24.18-.813 0-1.587-.06-2.32-.18a8.487 8.487 0 0 1-2.02-.58 5.43 5.43 0 0 1-1.56-1.08c-.44-.44-.787-.98-1.04-1.62-.24-.64-.36-1.387-.36-2.24v-7.5h2.66v7.22c0 1.013.2 1.786.6 2.32.4.52.947.88 1.64 1.08.707.186 1.507.28 2.4.28.867 0 1.64-.094 2.32-.28.693-.2 1.24-.56 1.64-1.08.413-.534.62-1.307.62-2.32Zm24.437-7.22c1.454 0 2.667.173 3.64.52.974.346 1.747.82 2.32 1.42.587.586 1 1.266 1.24 2.04.254.773.38 1.586.38 2.44 0 .853-.14 1.673-.42 2.46a5.49 5.49 0 0 1-1.3 2.1c-.586.6-1.366 1.08-2.34 1.44-.96.346-2.133.52-3.52.52h-7.4V6.162h7.4Zm-4.74 10.66h4.68c.96 0 1.754-.114 2.38-.34.64-.24 1.147-.56 1.52-.96.374-.4.64-.854.8-1.36.16-.507.24-1.034.24-1.58 0-.547-.08-1.067-.24-1.56a3.376 3.376 0 0 0-.8-1.32c-.373-.387-.88-.694-1.52-.92-.626-.227-1.42-.34-2.38-.34h-4.68v8.38Zm26.598-10.66h2.66v12.94h-2.66V6.162Zm25.105 13.2c-1.72 0-3.193-.267-4.42-.8-1.213-.547-2.147-1.32-2.8-2.32-.64-1-.96-2.2-.96-3.6 0-1.414.32-2.62.96-3.62.653-1 1.587-1.767 2.8-2.3 1.227-.547 2.7-.82 4.42-.82 1.733 0 3.207.273 4.42.82 1.213.533 2.14 1.3 2.78 2.3.653 1 .98 2.206.98 3.62 0 1.4-.327 2.6-.98 3.6-.64 1-1.567 1.773-2.78 2.32-1.213.533-2.687.8-4.42.8Zm0-2.3c1.067 0 2-.16 2.8-.48.813-.32 1.447-.807 1.9-1.46.467-.654.7-1.48.7-2.48s-.233-1.827-.7-2.48c-.453-.654-1.087-1.14-1.9-1.46-.8-.334-1.733-.5-2.8-.5-1.053 0-1.993.166-2.82.5-.827.32-1.473.806-1.94 1.46-.467.653-.7 1.48-.7 2.48s.233 1.826.7 2.48c.467.653 1.113 1.14 1.94 1.46.827.32 1.767.48 2.82.48Zm-126.76 26.3c-1.2 0-2.287-.14-3.26-.42-.96-.28-1.793-.7-2.5-1.26a5.592 5.592 0 0 1-1.6-2.08c-.373-.827-.56-1.78-.56-2.86 0-1.094.193-2.06.58-2.9.4-.854.96-1.574 1.68-2.16.733-.587 1.6-1.027 2.6-1.32 1.013-.307 2.133-.46 3.36-.46 1.453 0 2.706.206 3.76.62 1.053.4 1.88.966 2.48 1.7.613.733.96 1.606 1.04 2.62h-2.56a3.315 3.315 0 0 0-.86-1.38c-.387-.4-.9-.707-1.54-.92-.64-.227-1.413-.34-2.32-.34-1.16 0-2.154.186-2.98.56-.814.373-1.433.9-1.86 1.58-.427.68-.64 1.48-.64 2.4 0 .893.186 1.666.56 2.32.373.64.947 1.133 1.72 1.48.787.346 1.787.52 3 .52.933 0 1.753-.12 2.46-.36.72-.254 1.32-.587 1.8-1 .48-.427.82-.9 1.02-1.42l1.04-.38c-.173 1.72-.827 3.06-1.96 4.02-1.12.96-2.607 1.44-4.46 1.44Zm5.74-.26c0-.414.026-.887.08-1.42.053-.547.12-1.094.2-1.64l.22-1.54h-5.92v-1.7h7.72v6.3h-2.3Zm20.201 0v-12.94h8.78c1 0 1.867.14 2.6.42.747.266 1.327.693 1.74 1.28.413.573.62 1.313.62 2.22 0 .613-.107 1.133-.32 1.56a2.714 2.714 0 0 1-.9 1.04 4.351 4.351 0 0 1-1.3.62c-.493.133-1.02.22-1.58.26l-.28-.16c.933.013 1.7.093 2.3.24.6.133 1.047.386 1.34.76.307.36.46.9.46 1.62v3.08h-2.66v-2.9c0-.494-.087-.874-.26-1.14-.173-.28-.487-.474-.94-.58-.44-.107-1.08-.16-1.92-.16h-5.02v4.78h-2.66Zm2.66-6.86h6.12c.747 0 1.313-.18 1.7-.54.4-.36.6-.847.6-1.46 0-.587-.2-1.034-.6-1.34-.387-.307-.953-.46-1.7-.46h-6.12v3.8Zm31.624 1.46v3.18h9.98v2.22h-12.64v-12.94h12.62v2.22h-9.96v3.22h8.16v2.1h-8.16Zm30.471 0v3.18h9.98v2.22h-12.64v-12.94h12.62v2.22h-9.96v3.22h8.16v2.1h-8.16Zm40.931 2.76-.84.34v-10.64h2.66v12.94h-2.66l-10.46-10.22.84-.34v10.56h-2.66v-12.94h2.66l10.46 10.3ZM25.804 0l1.479 17.418L34.63 1.556 30.062 18.43 42.391 6.037 32.328 20.331l15.823-7.429-14.345 9.99 17.41-1.569-16.896 4.481 16.897 4.481-17.41-1.568 14.344 9.99-15.824-7.43 10.064 14.295-12.329-12.393 4.568 16.873-7.347-15.862-1.479 17.419-1.478-17.419-7.347 15.863 4.568-16.874-12.33 12.393 10.064-14.294-15.824 7.428 14.345-9.99-17.41 1.57 16.897-4.482-16.897-4.48 17.41 1.568-14.345-9.99 15.824 7.429L9.218 6.037 21.547 18.43 16.979 1.556l7.347 15.862L25.804 0Z"/></svg>