<svg xmlns="http://www.w3.org/2000/svg" width="63" height="63" fill="none"><circle cx="31.5" cy="31.5" r="31.5" fill="url(#a)"/><path stroke="#1C1F35" stroke-linecap="round" stroke-linejoin="round" stroke-width="2" d="M41 29.143h-3.142c-.417 0-.816.16-1.111.446a1.5 1.5 0 0 0-.46 1.078v3.81c0 .403.165.79.46 1.077.295.285.694.446 1.11.446h1.572c.417 0 .816-.16 1.11-.446A1.5 1.5 0 0 0 41 34.476v-5.333Zm0 0a8.906 8.906 0 0 0-.725-3.516 9.13 9.13 0 0 0-2.064-2.976 9.454 9.454 0 0 0-3.084-1.977A9.683 9.683 0 0 0 31.494 20a9.683 9.683 0 0 0-3.628.677 9.455 9.455 0 0 0-3.082 1.977 9.131 9.131 0 0 0-2.06 2.975A8.904 8.904 0 0 0 22 29.143v5.333c0 .404.166.792.46 1.078.295.285.694.446 1.111.446h1.571c.417 0 .816-.16 1.111-.446a1.5 1.5 0 0 0 .46-1.078v-3.81a1.5 1.5 0 0 0-.46-1.077 1.596 1.596 0 0 0-1.11-.446H22"/><path stroke="#1C1F35" stroke-linecap="round" stroke-linejoin="round" stroke-width="2" d="M41 35v2.143c0 .758-.339 1.484-.943 2.02-.603.536-1.421.837-2.275.837H32"/><defs><linearGradient id="a" x1="-1.786" x2="77.468" y1="13.65" y2="19.278" gradientUnits="userSpaceOnUse"><stop stop-color="#FFB629"/><stop offset=".507" stop-color="#FFDA56"/><stop offset="1" stop-color="#FFD7A6"/></linearGradient></defs></svg>