<svg xmlns="http://www.w3.org/2000/svg" width="57" height="58" fill="none"><path stroke="#141414" stroke-linecap="round" stroke-linejoin="round" stroke-width="2" d="M2.052 45.65h52.38M32.432 45.65V3.561c0-.507-.205-.994-.57-1.352a1.962 1.962 0 0 0-1.375-.56H7.14c-.516 0-1.01.201-1.376.56-.365.358-.57.845-.57 1.352V45.65"/><path fill="#FFD550" stroke="#141414" stroke-linecap="round" stroke-linejoin="round" stroke-width="2" d="M32.433 14.22H48.29a3 3 0 0 1 3 3v27.382H32.433V14.22Z"/><path stroke="#141414" stroke-linecap="round" stroke-linejoin="round" stroke-width="2" d="M13.575 11.078h7.334M1.004 41.459V26.792M55.48 30.982V16.316M35.575 10.03h7.333M16.719 26.792h7.333M13.575 36.22h7.334M39.766 36.22h4.19M39.766 26.792h4.19"/></svg>