<svg xmlns="http://www.w3.org/2000/svg" width="50" height="56" fill="none"><path fill="#FFD550" d="m3.959 18.512 21.08 11.834-.37 22.93L3.96 41.44V18.512ZM25.408 4.828l21.45 12.205-9.615 5.177-21.82-11.834 9.985-5.548Z"/><path stroke="#1C1F35" stroke-linecap="round" stroke-linejoin="round" stroke-width="2" d="M48.249 41.21V18.004a1.906 1.906 0 0 0-.965-1.647L26.57 4.705a1.836 1.836 0 0 0-1.836 0L4.023 16.355a1.906 1.906 0 0 0-.965 1.648v23.208a1.907 1.907 0 0 0 .965 1.647L24.735 54.51a1.836 1.836 0 0 0 1.836 0l20.713-11.65a1.906 1.906 0 0 0 .965-1.648v0Z"/><path stroke="#1C1F35" stroke-linecap="round" stroke-linejoin="round" stroke-width="2" d="M37.187 35.373V23.134L14.356 10.542"/><path stroke="#1C1F35" stroke-linecap="round" stroke-linejoin="round" stroke-width="2" d="M47.99 17.038 25.865 29.607 3.316 17.038M25.865 29.607l-.212 25.138M1 13.57l10.635-6.153M29.847 1.5l10.64 6.143M40.487 42.18l-10.64 6.144"/></svg>